<svg width="80" height="81" viewBox="0 0 80 81" fill="none" xmlns="http://www.w3.org/2000/svg">
<circle cx="40" cy="40.0469" r="40" fill="#F7931E"/>
<g clip-path="url(#clip0_3006_7)">
<path d="M49.8897 46.1379C48.6482 44.9122 47.0984 44.9122 45.8648 46.1379C44.9238 47.071 43.9828 48.0041 43.0577 48.9529C42.8046 49.2139 42.5911 49.2692 42.2827 49.0953C41.6739 48.7632 41.0255 48.4943 40.4403 48.1306C37.7122 46.4147 35.427 44.2085 33.4027 41.7255C32.3984 40.492 31.5049 39.1714 30.8802 37.6848C30.7537 37.3844 30.7774 37.1867 31.0225 36.9415C31.9635 36.0322 32.8808 35.0991 33.806 34.166C35.0949 32.8692 35.0949 31.351 33.7981 30.0463C33.0627 29.303 32.3273 28.5755 31.5919 27.8322C30.8328 27.0731 30.0816 26.306 29.3145 25.5548C28.0731 24.345 26.5232 24.345 25.2896 25.5627C24.3408 26.4958 23.4314 27.4526 22.4667 28.3699C21.5732 29.216 21.1224 30.2519 21.0275 31.4617C20.8773 33.4306 21.3597 35.2889 22.0397 37.0997C23.4314 40.8478 25.5506 44.1769 28.1205 47.2291C31.5919 51.3568 35.7354 54.6226 40.5826 56.979C42.7651 58.0386 45.0266 58.8531 47.4858 58.9875C49.178 59.0824 50.6488 58.6554 51.827 57.3348C52.6336 56.4334 53.5429 55.611 54.3969 54.7491C55.6621 53.4681 55.67 51.9182 54.4128 50.653C52.9103 49.1427 51.4 47.6403 49.8897 46.1379Z" fill="white"/>
<path d="M48.3803 39.8342L51.2981 39.3361C50.8395 36.6554 49.5743 34.2278 47.6528 32.2984C45.6206 30.2662 43.0506 28.9852 40.2198 28.5898L39.8086 31.5235C41.999 31.8319 43.9916 32.8203 45.5652 34.3939C47.0518 35.8805 48.0244 37.7625 48.3803 39.8342Z" fill="white"/>
<path d="M52.9421 27.152C49.5735 23.7834 45.3114 21.6563 40.6065 21L40.1953 23.9337C44.2597 24.503 47.9446 26.3454 50.8545 29.2475C53.6142 32.0072 55.425 35.4943 56.0814 39.3294L58.9992 38.8313C58.2322 34.3873 56.1367 30.3545 52.9421 27.152Z" fill="white"/>
</g>
<defs>
<clipPath id="clip0_3006_7">
<rect width="38" height="38" fill="white" transform="translate(21 21)"/>
</clipPath>
</defs>
</svg>
