<svg width="80" height="81" viewBox="0 0 80 81" fill="none" xmlns="http://www.w3.org/2000/svg">
<circle cx="40" cy="40.0469" r="40" fill="#F7931E"/>
<path d="M49.4987 23.5859H30.4987C28.3998 23.5885 26.3877 24.4233 24.9035 25.9075C23.4194 27.3916 22.5845 29.4037 22.582 31.5026V44.1693C22.5843 45.9936 23.2155 47.7613 24.3692 49.1746C25.5228 50.5878 27.1284 51.5601 28.9154 51.9276V56.8359C28.9153 57.1226 28.9931 57.4039 29.1404 57.6498C29.2877 57.8957 29.499 58.097 29.7517 58.2322C30.0045 58.3675 30.2892 58.4315 30.5755 58.4176C30.8618 58.4037 31.139 58.3124 31.3774 58.1533L40.4737 52.0859H49.4987C51.5976 52.0834 53.6097 51.2485 55.0939 49.7644C56.578 48.2803 57.4129 46.2681 57.4154 44.1693V31.5026C57.4129 29.4037 56.578 27.3916 55.0939 25.9075C53.6097 24.4233 51.5976 23.5885 49.4987 23.5859ZM46.332 42.5859H33.6654C33.2454 42.5859 32.8427 42.4191 32.5458 42.1222C32.2488 41.8253 32.082 41.4225 32.082 41.0026C32.082 40.5827 32.2488 40.1799 32.5458 39.883C32.8427 39.5861 33.2454 39.4193 33.6654 39.4193H46.332C46.752 39.4193 47.1547 39.5861 47.4516 39.883C47.7486 40.1799 47.9154 40.5827 47.9154 41.0026C47.9154 41.4225 47.7486 41.8253 47.4516 42.1222C47.1547 42.4191 46.752 42.5859 46.332 42.5859ZM49.4987 36.2526H30.4987C30.0788 36.2526 29.676 36.0858 29.3791 35.7889C29.0822 35.4919 28.9154 35.0892 28.9154 34.6693C28.9154 34.2493 29.0822 33.8466 29.3791 33.5497C29.676 33.2528 30.0788 33.0859 30.4987 33.0859H49.4987C49.9186 33.0859 50.3214 33.2528 50.6183 33.5497C50.9152 33.8466 51.082 34.2493 51.082 34.6693C51.082 35.0892 50.9152 35.4919 50.6183 35.7889C50.3214 36.0858 49.9186 36.2526 49.4987 36.2526Z" fill="white"/>
</svg>
