<svg width="160" height="168" viewBox="0 0 160 168" fill="none" xmlns="http://www.w3.org/2000/svg">
<rect width="160" height="168" rx="10" fill="#F7931E"/>
<path fill-rule="evenodd" clip-rule="evenodd" d="M76.2813 54.1562H86.2416V59.1539C89.5395 59.8114 92.6061 61.1089 95.3071 62.9113L98.8426 59.3758L105.886 66.419L102.35 69.9545C104.153 72.6553 105.45 75.7223 106.107 79.0197H111.105V88.9801H106.107C106.075 89.1414 106.041 89.302 106.006 89.4621C105.171 89.3003 104.31 89.2146 103.428 89.2146C101.89 89.2146 100.413 89.4728 99.0359 89.9473C99.7193 87.9976 100.092 85.9019 100.092 83.7187C100.092 73.3189 91.6613 64.8882 81.2614 64.8882C70.8615 64.8882 62.4312 73.3188 62.4312 83.7184C62.4312 94.1181 70.8617 102.549 81.2616 102.549C84.481 102.549 87.5112 101.74 90.1616 100.316C90.0246 101.087 89.9532 101.879 89.9532 102.689C89.9532 104.372 90.2626 105.982 90.826 107.467C89.3615 108.065 87.8282 108.529 86.2416 108.846V113.843H76.2813V108.846C72.9836 108.188 69.917 106.891 67.2158 105.089L63.6804 108.624L56.6374 101.581L60.1728 98.0459C58.3699 95.3448 57.073 92.2778 56.4154 88.98H51.418V79.0196H56.4154C57.0728 75.7219 58.3704 72.6553 60.1728 69.9541L56.6374 66.4187L63.6804 59.3757L67.2158 62.911C69.9168 61.1084 72.9839 59.8115 76.2813 59.1539V54.1562ZM103.428 91.5348C97.2673 91.5348 92.2735 96.5286 92.2735 102.689C92.2735 108.849 97.2673 113.843 103.428 113.843C109.588 113.843 114.582 108.849 114.582 102.689C114.582 96.5286 109.588 91.5348 103.428 91.5348ZM107.651 97.6023L101.044 104.21L98.7887 101.372C98.234 100.675 97.2189 100.558 96.5212 101.113C95.8233 101.668 95.7074 102.683 96.2621 103.381L99.5802 107.557C100.154 108.379 101.336 108.491 102.051 107.776L109.938 99.889C110.569 99.2576 110.569 98.2337 109.938 97.6023C109.306 96.971 108.283 96.971 107.651 97.6023ZM81.2616 69.2731C73.2834 69.2731 66.8159 75.7406 66.8159 83.7186C66.8159 91.6966 73.2834 98.1641 81.2616 98.1641C89.2394 98.1641 95.7069 91.6966 95.7069 83.7186C95.7069 75.7406 89.2393 69.2731 81.2616 69.2731ZM82.4217 82.0968V73.3697C82.4217 72.7289 81.9024 72.2096 81.2616 72.2096C80.6208 72.2096 80.1014 72.7289 80.1014 73.3697V83.3331L74.1947 86.7434C73.6415 87.0638 73.4529 87.7719 73.7731 88.325C74.0934 88.8782 74.8017 89.0669 75.3548 88.7466L80.188 85.9561C80.3618 86.3782 80.7769 86.6754 81.2616 86.6754C81.9024 86.6754 82.4217 86.1561 82.4217 85.5153V84.664L83.1494 84.2439C83.7025 83.926 83.8933 83.2198 83.5754 82.6667C83.3349 82.248 82.8721 82.037 82.4217 82.0968Z" fill="white"/>
</svg>
