<svg width="160" height="168" viewBox="0 0 160 168" fill="none" xmlns="http://www.w3.org/2000/svg">
<rect width="160" height="168" rx="10" fill="#F7931E"/>
<path fill-rule="evenodd" clip-rule="evenodd" d="M83.7873 100.928L103.073 106.095C103.299 106.157 103.492 106.305 103.609 106.508C103.727 106.712 103.759 106.953 103.699 107.18L102.744 110.744C102.682 110.971 102.534 111.163 102.331 111.281C102.128 111.398 101.886 111.43 101.659 111.37L82.3739 106.202C82.1475 106.141 81.9546 105.993 81.8373 105.789C81.72 105.586 81.6878 105.345 81.7478 105.118L82.7029 101.554C82.7643 101.327 82.9128 101.135 83.116 101.017C83.3192 100.9 83.5605 100.868 83.7873 100.928ZM76.2127 100.928L56.9273 106.095C56.7009 106.157 56.5079 106.305 56.3906 106.508C56.2732 106.712 56.2411 106.953 56.3012 107.18L57.2562 110.744C57.3176 110.971 57.4661 111.163 57.6693 111.281C57.8725 111.398 58.1139 111.43 58.3407 111.37L77.6261 106.202C77.8525 106.141 78.0454 105.993 78.1627 105.789C78.28 105.586 78.3122 105.345 78.2522 105.118L77.2971 101.554C77.2357 101.327 77.0872 101.135 76.884 101.017C76.6808 100.9 76.4395 100.868 76.2127 100.928ZM80 52.6016C83.1002 52.6016 86.1308 53.5209 88.7086 55.2433C91.2863 56.9657 93.2954 59.4138 94.4818 62.278C95.6682 65.1422 95.9786 68.294 95.3738 71.3346C94.769 74.3753 93.2761 77.1683 91.0839 79.3605C88.8917 81.5526 86.0987 83.0455 83.058 83.6504C80.0174 84.2552 76.8657 83.9448 74.0014 82.7584C71.1372 81.572 68.6891 79.5629 66.9667 76.9851C65.2443 74.4074 64.325 71.3768 64.325 68.2766C64.325 64.1193 65.9765 60.1323 68.9161 57.1927C71.8557 54.253 75.8427 52.6016 80 52.6016ZM83.3169 63.794C82.7699 63.0428 81.9485 62.538 81.0313 62.3894V61.774C81.0313 61.5005 80.9226 61.2382 80.7292 61.0448C80.5358 60.8514 80.2735 60.7428 80 60.7428C79.7265 60.7428 79.4642 60.8514 79.2708 61.0448C79.0774 61.2382 78.9688 61.5005 78.9688 61.774V62.4307C78.1322 62.6172 77.3938 63.1058 76.8952 63.803C76.3966 64.5002 76.1727 65.3568 76.2666 66.2088C76.3604 67.0608 76.7654 67.8482 77.4038 68.4201C78.0422 68.992 78.8692 69.3083 79.7263 69.3082H80.2738C80.6499 69.3082 81.0105 69.4576 81.2765 69.7235C81.5424 69.9894 81.6918 70.3501 81.6918 70.7262C81.6918 71.1022 81.5424 71.4629 81.2765 71.7288C81.0105 71.9947 80.6499 72.1441 80.2738 72.1441H79.5027C79.277 72.146 79.0543 72.093 78.8536 71.9897C78.653 71.8864 78.4804 71.7359 78.3508 71.5512C78.1905 71.33 77.949 71.1816 77.6793 71.1385C77.4096 71.0955 77.1338 71.1613 76.9127 71.3216C76.6916 71.4818 76.5431 71.7234 76.5001 71.9931C76.457 72.2628 76.5229 72.5385 76.6831 72.7597C77.23 73.511 78.0515 74.0159 78.9688 74.1646V74.78C78.9688 75.0535 79.0774 75.3158 79.2708 75.5092C79.4642 75.7026 79.7265 75.8113 80 75.8113C80.2735 75.8113 80.5358 75.7026 80.7292 75.5092C80.9226 75.3158 81.0313 75.0535 81.0313 74.78V74.1234C81.8678 73.9368 82.6062 73.4482 83.1048 72.751C83.6034 72.0539 83.8273 71.1973 83.7334 70.3453C83.6396 69.4933 83.2347 68.7059 82.5963 68.134C81.9579 67.5621 81.1309 67.2458 80.2738 67.2458H79.7263C79.3503 67.2458 78.9896 67.0964 78.7237 66.8305C78.4578 66.5646 78.3084 66.2039 78.3084 65.8279C78.3084 65.4518 78.4578 65.0911 78.7237 64.8252C78.9896 64.5593 79.3503 64.4099 79.7263 64.4099H80.4973C80.723 64.4081 80.9457 64.4611 81.1464 64.5644C81.347 64.6676 81.5196 64.8181 81.6492 65.0029C81.7286 65.1124 81.8287 65.2052 81.9439 65.276C82.0592 65.3468 82.1872 65.3942 82.3207 65.4155C82.4543 65.4368 82.5907 65.4316 82.7222 65.4002C82.8538 65.3688 82.9778 65.3118 83.0873 65.2324C83.1968 65.1531 83.2896 65.0529 83.3604 64.9377C83.4312 64.8225 83.4786 64.6945 83.4999 64.561C83.5213 64.4274 83.5161 64.291 83.4847 64.1595C83.4532 64.0279 83.3962 63.9039 83.3169 63.7944V63.794ZM80 56.847C77.7394 56.847 75.5295 57.5173 73.6499 58.7733C71.7702 60.0292 70.3052 61.8143 69.4401 63.9029C68.575 65.9914 68.3486 68.2896 68.7896 70.5068C69.2306 72.724 70.3192 74.7606 71.9177 76.3591C73.5162 77.9576 75.5529 79.0463 77.77 79.4873C79.9872 79.9283 82.2854 79.702 84.374 78.8369C86.4625 77.9718 88.2477 76.5068 89.5036 74.6272C90.7596 72.7476 91.43 70.5377 91.43 68.2771C91.43 65.2456 90.2258 62.3384 88.0822 60.1948C85.9387 58.0513 83.0314 56.847 80 56.847ZM73.528 89.602C74.1232 90.3534 74.5586 91.2185 74.8076 92.1441C75.0565 93.0698 75.1137 94.0366 74.9756 94.9852L74.4151 99.2743L58.5036 103.538C58.4907 101.45 57.8351 99.6311 56.223 97.897L50.2291 91.4496C48.8642 89.9815 48.0957 88.3043 48.0957 86.2997V61.5226C48.1017 60.4604 48.5279 59.4437 49.2811 58.6948C50.0344 57.9458 51.0535 57.5253 52.1157 57.5253C53.178 57.5253 54.197 57.9458 54.9503 58.6948C55.7035 59.4437 56.1297 60.4604 56.1357 61.5226V76.2789C55.5947 76.5448 55.1019 76.8991 54.6775 77.3272C53.663 78.3622 53.0972 79.7553 53.1026 81.2046C53.108 82.6539 53.6842 84.0428 54.7064 85.0702L60.5937 90.9112C60.7871 91.1035 61.0489 91.2111 61.3216 91.2104C61.5944 91.2096 61.8556 91.1005 62.0479 90.9071C62.2402 90.7138 62.3479 90.4519 62.3471 90.1792C62.3463 89.9065 62.2373 89.6452 62.0439 89.4529L56.1569 83.6122C55.5186 82.9708 55.1585 82.1039 55.1546 81.1991C55.1507 80.2943 55.5033 79.4243 56.136 78.7775L56.1373 78.7762L56.1386 78.7749L56.1398 78.7735L56.1411 78.7722L56.1486 78.7642L56.1499 78.763L56.1512 78.7615L56.1525 78.7603L56.1536 78.7588L56.1549 78.7575L56.1562 78.7563L56.1575 78.755L56.1588 78.7535L56.1601 78.7523L56.1614 78.751L56.1625 78.7496L56.1638 78.7483C56.1816 78.7297 56.1996 78.7113 56.2178 78.693C57.0508 77.8599 58.1792 77.3899 59.3572 77.3852C60.5351 77.3805 61.6673 77.8416 62.5068 78.668L73.5283 89.6026L73.528 89.602ZM86.472 89.602C85.8768 90.3534 85.4414 91.2185 85.1924 92.1441C84.9435 93.0698 84.8863 94.0366 85.0244 94.9852L85.5849 99.2743L101.496 103.538C101.509 101.45 102.165 99.6311 103.777 97.897L109.771 91.4496C111.136 89.9815 111.904 88.3043 111.904 86.2997V61.5226C111.898 60.4604 111.472 59.4437 110.719 58.6948C109.965 57.9458 108.946 57.5253 107.884 57.5253C106.822 57.5253 105.803 57.9458 105.05 58.6948C104.296 59.4437 103.87 60.4604 103.864 61.5226V76.2789C104.405 76.5448 104.898 76.8991 105.322 77.3272C106.337 78.3622 106.903 79.7553 106.897 81.2046C106.892 82.6539 106.316 84.0428 105.293 85.0702L99.4062 90.9112C99.2128 91.1035 98.951 91.2111 98.6782 91.2104C98.4055 91.2096 98.1442 91.1005 97.9519 90.9071C97.7596 90.7138 97.652 90.4519 97.6528 90.1792C97.6535 89.9065 97.7626 89.6452 97.956 89.4529L103.843 83.6122C104.482 82.9709 104.842 82.104 104.846 81.1991C104.85 80.2942 104.497 79.4242 103.864 78.7775L103.863 78.7762L103.861 78.7749L103.86 78.7735L103.859 78.7722L103.851 78.7642L103.85 78.763L103.849 78.7615L103.848 78.7603L103.846 78.7588L103.845 78.7575L103.844 78.7563L103.843 78.755L103.841 78.7535L103.84 78.7523L103.839 78.751L103.837 78.7496L103.836 78.7483C103.818 78.7297 103.8 78.7113 103.782 78.693C102.949 77.8599 101.821 77.3899 100.643 77.3852C99.4649 77.3805 98.3328 77.8416 97.4932 78.668L86.472 89.602Z" fill="white"/>
</svg>
