<svg width="160" height="168" viewBox="0 0 160 168" fill="none" xmlns="http://www.w3.org/2000/svg">
<rect width="160" height="168" rx="10" fill="#F7931E"/>
<path fill-rule="evenodd" clip-rule="evenodd" d="M79.9996 53.0586C93.3362 53.0586 104.148 63.8701 104.148 77.2066C104.148 90.5431 93.3362 101.355 79.9996 101.355C66.6629 101.355 55.8516 90.5431 55.8516 77.2066C55.8516 63.8701 66.6629 53.0586 79.9996 53.0586ZM98.1288 96.136C94.7751 99.3488 90.5691 101.679 85.884 102.754L90.0107 112.335L94.4661 105.155L102.744 106.851L98.1288 96.136ZM75.3754 103.011C70.6434 102.168 66.3508 100.056 62.8625 97.0393L57.2556 109.082L65.5792 107.628L69.8245 114.934L75.3754 103.011ZM80.4082 68.7036C80.2664 68.33 79.7329 68.33 79.5911 68.7036L77.4932 74.229C77.4302 74.395 77.2834 74.5018 77.1059 74.5104L71.2026 74.7981C70.8011 74.8176 70.6367 75.3234 70.9501 75.5753L75.5568 79.278C75.6953 79.3892 75.7513 79.5618 75.7048 79.7333L74.1542 85.4366C74.0487 85.8245 74.4789 86.1371 74.8152 85.9169L79.7602 82.6798C79.9088 82.5825 80.0903 82.5825 80.2388 82.6798L85.1839 85.9169C85.5202 86.1371 85.9505 85.8245 85.845 85.4366L84.2943 79.7334C84.2477 79.562 84.3037 79.3894 84.4422 79.2781L89.049 75.5754C89.3623 75.3235 89.1979 74.8178 88.7965 74.7982L82.8933 74.5105C82.7158 74.5019 82.5691 74.3952 82.5059 74.2291L80.4082 68.7036ZM82.2817 60.133C80.9078 59.1046 79.0913 59.1046 77.7174 60.133C74.1407 62.8104 74.9517 62.515 70.4908 62.7632C68.7774 62.8584 67.3857 64.0262 66.9943 65.6971C65.9753 70.0471 66.4069 69.2995 63.1492 72.3571C61.8979 73.5316 61.5825 75.3206 62.3567 76.8521C64.3723 80.8394 64.2223 79.9894 63.6922 84.4256C63.4885 86.1296 64.3969 87.7028 65.9743 88.3784C70.0814 90.1373 69.4201 89.5824 71.8655 93.3217C72.8047 94.758 74.5118 95.3792 76.1546 94.8827C80.4313 93.5902 79.5681 93.5902 83.845 94.8827C85.4876 95.3792 87.1947 94.7578 88.1339 93.3217C90.5793 89.5825 89.9181 90.1373 94.0251 88.3784C95.6026 87.7028 96.5109 86.1296 96.3072 84.4256C95.777 79.9893 95.6271 80.8394 97.6427 76.8521C98.4168 75.3206 98.1014 73.5316 96.8502 72.3571C93.5923 69.2996 94.0241 70.0471 93.005 65.6971C92.6137 64.0262 91.222 62.8586 89.5086 62.7632C85.0474 62.515 85.8585 62.8102 82.2817 60.133Z" fill="white"/>
</svg>
