<svg width="48" height="47" viewBox="0 0 48 47" fill="none" xmlns="http://www.w3.org/2000/svg">
<g clip-path="url(#clip0_1002_128)">
<path d="M39.408 28.2957C39.447 27.7996 39.4729 27.3064 39.4729 26.8285V8.15874C39.4729 8.03296 39.4357 7.90998 39.366 7.80529C39.2962 7.7006 39.1971 7.61888 39.081 7.5704L21.6524 0.279939C21.5744 0.247285 21.4907 0.230469 21.4062 0.230469C21.3216 0.230469 21.2379 0.247285 21.16 0.279939L3.73173 7.5704C3.61566 7.61888 3.51652 7.7006 3.44679 7.80529C3.37706 7.90998 3.33986 8.03296 3.33987 8.15874V26.8285C3.33385 30.5497 4.43122 34.1891 6.49327 37.2867C8.55532 40.3843 11.4895 42.801 14.9248 44.2312L21.1607 46.8398C21.2387 46.8725 21.3224 46.8893 21.4069 46.8893C21.4915 46.8893 21.5752 46.8725 21.6532 46.8398L27.8894 44.2312C27.9857 44.1911 28.0793 44.147 28.1745 44.1051C29.1915 45.0754 30.4055 45.8156 31.7339 46.2753C33.0623 46.735 34.474 46.9035 35.8733 46.7694C37.2726 46.6353 38.6266 46.2017 39.8435 45.4981C41.0604 44.7944 42.1116 43.8372 42.9259 42.6913C43.7401 41.5455 44.2983 40.2378 44.5625 38.8572C44.8268 37.4766 44.7908 36.0552 44.4572 34.6897C44.1236 33.3242 43.5001 32.0464 42.629 30.9432C41.7579 29.8399 40.6596 28.937 39.4087 28.2957H39.408ZM21.4064 45.5599L15.4165 43.0546C12.2137 41.7208 9.47813 39.4675 7.55566 36.5793C5.63318 33.6912 4.61009 30.298 4.6157 26.8285V8.58342L21.4064 1.55978L38.1971 8.58342V26.8285C38.1971 27.134 38.1868 27.4482 38.1693 27.7617C37.4102 27.4952 36.6209 27.3238 35.8196 27.2514C35.824 27.1078 35.8277 26.966 35.8277 26.8278V10.5854C35.8276 10.4595 35.7904 10.3365 35.7207 10.2318C35.651 10.127 35.5519 10.0452 35.4358 9.99667L21.6524 4.23137C21.5744 4.19872 21.4907 4.1819 21.4062 4.1819C21.3216 4.1819 21.2379 4.19872 21.16 4.23137L7.3766 9.99667C7.26063 10.0453 7.1616 10.1272 7.09196 10.2319C7.02231 10.3366 6.98514 10.4596 6.9851 10.5854V26.8285C6.98024 29.8306 7.86548 32.7666 9.52895 35.2657C11.1924 37.7647 13.5594 39.7145 16.3308 40.8685L21.16 42.8883C21.2379 42.921 21.3216 42.9379 21.4062 42.9379C21.4907 42.9379 21.5745 42.921 21.6524 42.8883L26.0092 41.0657C26.3422 41.7957 26.7634 42.4822 27.2635 43.1096L21.4064 45.5599ZM25.1289 37.0137C25.1284 37.9827 25.2721 38.9463 25.5554 39.873L21.4064 41.6085L16.8232 39.6915C14.2841 38.6343 12.1155 36.848 10.5914 34.5585C9.06738 32.2689 8.25638 29.5789 8.26093 26.8285V11.01L21.4064 5.51121L34.5518 11.01V26.8304C34.5518 26.9576 34.5485 27.0888 34.5445 27.2219C32.0152 27.3245 29.6233 28.4006 27.8687 30.2254C26.1141 32.0501 25.1324 34.4822 25.1289 37.0137ZM29.9657 43.9396V43.1566C29.9667 42.2627 30.3223 41.4056 30.9544 40.7734C31.5865 40.1413 32.4436 39.7857 33.3376 39.7848H36.5272C37.4211 39.7857 38.2782 40.1413 38.9104 40.7734C39.5425 41.4056 39.898 42.2627 39.899 43.1566V43.9393C38.4524 44.9809 36.715 45.5413 34.9324 45.5413C33.1498 45.5413 31.4123 44.9812 29.9657 43.9396ZM41.1584 42.8326C41.0757 41.6604 40.5524 40.563 39.6935 39.7609C38.8347 38.9589 37.7041 38.5117 36.529 38.5093H33.3394C32.1643 38.5117 31.0336 38.9588 30.1748 39.7608C29.3159 40.5629 28.7926 41.6604 28.71 42.8326C27.5738 41.6187 26.8173 40.0992 26.5335 38.461C26.2497 36.8228 26.451 35.1374 27.1125 33.6121C27.7741 32.0868 28.8671 30.7881 30.2571 29.8759C31.6471 28.9636 33.2734 28.4776 34.936 28.4776C36.5986 28.4776 38.225 28.9636 39.615 29.8759C41.0049 30.7881 42.098 32.0868 42.7595 33.6121C43.4211 35.1374 43.6223 36.8228 43.3385 38.461C43.0547 40.0992 42.2982 41.6187 41.1621 42.8326H41.1584Z" fill="#0063A6"/>
<path d="M34.9323 30.3063C34.2164 30.2664 33.5049 30.4423 32.89 30.8111C32.2751 31.18 31.7851 31.7249 31.4832 32.3753C31.1814 33.0258 31.0817 33.7518 31.197 34.4595C31.3124 35.1672 31.6374 35.8241 32.1301 36.345C32.6228 36.866 33.2605 37.2271 33.9607 37.3816C34.6609 37.5362 35.3914 37.4771 36.0576 37.2119C36.7239 36.9468 37.2952 36.4878 37.6977 35.8944C38.1003 35.301 38.3154 34.6005 38.3155 33.8834C38.3394 32.9609 37.9968 32.0665 37.3627 31.3961C36.7286 30.7257 35.8547 30.3338 34.9323 30.3063ZM34.9323 36.1843C34.4686 36.2251 34.0033 36.1249 33.5976 35.8968C33.1918 35.6686 32.8644 35.3232 32.6583 34.9057C32.4522 34.4883 32.3771 34.0184 32.4427 33.5575C32.5084 33.0966 32.7117 32.6663 33.0262 32.323C33.3406 31.9797 33.7514 31.7394 34.2047 31.6336C34.6581 31.5279 35.1328 31.5615 35.5667 31.7302C36.0006 31.8989 36.3734 32.1947 36.6362 32.579C36.8991 32.9632 37.0397 33.4179 37.0396 33.8834C37.0639 34.4677 36.8558 35.0379 36.461 35.4693C36.0661 35.9007 35.5165 36.1583 34.9323 36.1857V36.1843Z" fill="#0063A6"/>
<path d="M21.4067 10.543C19.8089 10.543 18.247 11.0168 16.9185 11.9045C15.59 12.7921 14.5545 14.0538 13.9431 15.53C13.3316 17.0062 13.1716 18.6305 13.4834 20.1976C13.7951 21.7647 14.5645 23.2041 15.6943 24.3339C16.8241 25.4637 18.2636 26.2332 19.8306 26.5449C21.3977 26.8566 23.0221 26.6966 24.4982 26.0852C25.9744 25.4737 27.2361 24.4383 28.1238 23.1097C29.0115 21.7812 29.4853 20.2193 29.4853 18.6215C29.4828 16.4797 28.6309 14.4263 27.1164 12.9118C25.6019 11.3973 23.5485 10.5454 21.4067 10.543ZM27.5522 21.5188H25.5032C25.6521 20.7737 25.7413 20.018 25.77 19.2587H28.1759C28.1016 20.0427 27.8905 20.8076 27.5522 21.5188ZM15.2612 15.7228H17.3098C17.1613 16.468 17.0721 17.2237 17.043 17.9829H14.6371C14.7115 17.1989 14.9227 16.4339 15.2612 15.7228ZM22.0446 14.447V11.9938C22.7095 12.3408 23.3532 13.2058 23.8169 14.4477L22.0446 14.447ZM24.1953 15.7228C24.3614 16.4658 24.4609 17.2222 24.4924 17.9829H22.0446V15.7228H24.1953ZM20.7688 11.993V14.447H18.9965C19.4601 13.2076 20.1039 12.3408 20.7688 11.9938V11.993ZM20.7688 15.7228V17.9829H18.321C18.3523 17.2222 18.4518 16.4658 18.6181 15.7228H20.7688ZM14.6364 19.2587H17.0423C17.0714 20.0179 17.1606 20.7736 17.3091 21.5188H15.2605C14.922 20.8077 14.7108 20.0427 14.6364 19.2587ZM18.321 19.2587H20.7688V21.5188H18.6181C18.4518 20.7758 18.3523 20.0194 18.321 19.2587ZM20.7688 22.7946V25.2486C20.1039 24.9019 19.4601 24.0365 18.9961 22.7946H20.7688ZM22.0446 25.2486V22.7946H23.8169C23.3532 24.0369 22.7095 24.9019 22.0446 25.2486ZM22.0446 21.5188V19.2587H24.4924C24.4609 20.0194 24.3614 20.7758 24.1953 21.5188H22.0446ZM25.77 17.9829C25.7411 17.2237 25.6519 16.4679 25.5032 15.7228H27.5522C27.8909 16.4339 28.1024 17.1988 28.177 17.9829H25.77ZM26.7666 14.447H25.1733C24.9552 13.7472 24.649 13.0781 24.262 12.4556C25.2428 12.9117 26.1013 13.5942 26.7666 14.447ZM18.5496 12.4564C18.1632 13.0787 17.8576 13.7476 17.6401 14.447H16.0467C16.7118 13.5948 17.5695 12.9125 18.5496 12.4564ZM16.0464 22.7946H17.6401C17.8576 23.4943 18.1632 24.1634 18.5496 24.786C17.5693 24.3296 16.7114 23.6471 16.0464 22.7946ZM24.2635 24.7864C24.6505 24.1638 24.9567 23.4945 25.1748 22.7946H26.7685C26.1029 23.6475 25.2444 24.3299 24.2635 24.7864Z" fill="#0063A6"/>
</g>
<defs>
<clipPath id="clip0_1002_128">
<rect width="46.659" height="46.659" fill="white" transform="translate(0.708984 0.230469)"/>
</clipPath>
</defs>
</svg>
