<svg width="63" height="63" viewBox="0 0 63 63" fill="none" xmlns="http://www.w3.org/2000/svg">
<rect x="0.670777" y="0.530152" width="61.1751" height="61.1751" rx="20.2189" stroke="#F7931E" stroke-width="1.03687"/>
<path d="M38.2113 26.4608V35.6255C38.2113 35.9692 38.0681 36.2842 37.839 36.5134C37.5812 36.7711 37.2662 36.9143 36.9225 36.9143C36.2065 36.943 35.6051 36.3415 35.6337 35.6255L35.6051 29.5826L26.8413 38.3463C26.3258 38.8618 25.5239 38.8618 25.0084 38.3463C24.5215 37.8594 24.4929 37.0289 25.0084 36.5134L33.7721 27.7496H27.7578C27.0418 27.7783 26.4404 27.1768 26.469 26.4608C26.4404 25.7448 27.0418 25.1434 27.7578 25.1721H36.9225C37.6385 25.1434 38.2399 25.7448 38.2113 26.4608Z" fill="#F7931E"/>
</svg>
