<svg width="36" height="37" viewBox="0 0 36 37" fill="none" xmlns="http://www.w3.org/2000/svg">
<path d="M33.1006 0.758789C34.4469 0.758789 35.6348 1.94669 35.6348 3.37216V33.7031C35.6348 35.1286 34.4469 36.2373 33.1006 36.2373H2.61124C1.26495 36.2373 0.15625 35.1286 0.15625 33.7031V3.37216C0.15625 1.94669 1.26495 0.758789 2.61124 0.758789H33.1006ZM10.8473 31.1689V14.3008H5.62057V31.1689H10.8473ZM8.23395 11.925C9.897 11.925 11.2433 10.5787 11.2433 8.91568C11.2433 7.25262 9.897 5.82715 8.23395 5.82715C6.4917 5.82715 5.14542 7.25262 5.14542 8.91568C5.14542 10.5787 6.4917 11.925 8.23395 11.925ZM30.5664 31.1689V21.9034C30.5664 17.3893 29.5369 13.8257 24.231 13.8257C21.6968 13.8257 19.9545 15.2511 19.2418 16.5974H19.1626V14.3008H14.1734V31.1689H19.4002V22.8537C19.4002 20.6363 19.7961 18.498 22.5679 18.498C25.2605 18.498 25.2605 21.0322 25.2605 22.9329V31.1689H30.5664Z" fill="white"/>
</svg>
