<svg width="37" height="37" viewBox="0 0 37 37" fill="none" xmlns="http://www.w3.org/2000/svg">
<path d="M18.3486 9.39084C23.3378 9.39084 27.4558 13.5089 27.4558 18.498C27.4558 23.5664 23.3378 27.6053 18.3486 27.6053C13.2803 27.6053 9.24142 23.5664 9.24142 18.498C9.24142 13.5089 13.2803 9.39084 18.3486 9.39084ZM18.3486 24.4375C21.5956 24.4375 24.2089 21.8242 24.2089 18.498C24.2089 15.2511 21.5956 12.6378 18.3486 12.6378C15.0225 12.6378 12.4091 15.2511 12.4091 18.498C12.4091 21.8242 15.1017 24.4375 18.3486 24.4375ZM29.9108 9.07407C29.9108 7.88617 28.9605 6.93585 27.7726 6.93585C26.5847 6.93585 25.6344 7.88617 25.6344 9.07407C25.6344 10.262 26.5847 11.2123 27.7726 11.2123C28.9605 11.2123 29.9108 10.262 29.9108 9.07407ZM35.9295 11.2123C36.0879 14.1424 36.0879 22.9329 35.9295 25.863C35.7711 28.714 35.1376 31.1689 33.0786 33.3072C31.0195 35.3662 28.4854 35.9997 25.6344 36.1581C22.7043 36.3165 13.9138 36.3165 10.9837 36.1581C8.13272 35.9997 5.67773 35.3662 3.53952 33.3072C1.4805 31.1689 0.846954 28.714 0.688568 25.863C0.530182 22.9329 0.530182 14.1424 0.688568 11.2123C0.846954 8.36133 1.4805 5.82715 3.53952 3.76813C5.67773 1.70911 8.13272 1.07556 10.9837 0.917175C13.9138 0.758789 22.7043 0.758789 25.6344 0.917175C28.4854 1.07556 31.0195 1.70911 33.0786 3.76813C35.1376 5.82715 35.7711 8.36133 35.9295 11.2123ZM32.1282 28.9515C33.0786 26.6549 32.841 21.1114 32.841 18.498C32.841 15.9639 33.0786 10.4203 32.1282 8.04456C31.4947 6.53989 30.3068 5.2728 28.8021 4.71844C26.4263 3.76813 20.8828 4.00571 18.3486 4.00571C15.7353 4.00571 10.1917 3.76813 7.89514 4.71844C6.31128 5.35199 5.12338 6.53989 4.48984 8.04456C3.53952 10.4203 3.7771 15.9639 3.7771 18.498C3.7771 21.1114 3.53952 26.6549 4.48984 28.9515C5.12338 30.5354 6.31128 31.7233 7.89514 32.3568C10.1917 33.3072 15.7353 33.0696 18.3486 33.0696C20.8828 33.0696 26.4263 33.3072 28.8021 32.3568C30.3068 31.7233 31.5739 30.5354 32.1282 28.9515Z" fill="white"/>
</svg>
