<svg width="60" height="60" viewBox="0 0 60 60" fill="none" xmlns="http://www.w3.org/2000/svg">
<path opacity="0.1" d="M30 60C46.5685 60 60 46.5685 60 30C60 13.4315 46.5685 0 30 0C13.4315 0 0 13.4315 0 30C0 46.5685 13.4315 60 30 60Z" fill="#0063A6"/>
<path d="M36.9688 30C36.9688 30.5625 36.5312 31 36 31H26.4062L29.6875 34.3125C30.0938 34.6875 30.0938 35.3438 29.6875 35.7188C29.5 35.9062 29.25 36 29 36C28.7188 36 28.4688 35.9062 28.2812 35.7188L23.2812 30.7188C22.875 30.3438 22.875 29.6875 23.2812 29.3125L28.2812 24.3125C28.6562 23.9062 29.3125 23.9062 29.6875 24.3125C30.0938 24.6875 30.0938 25.3438 29.6875 25.7188L26.4062 29H36C36.5312 29 36.9688 29.4688 36.9688 30Z" fill="#0063A6"/>
</svg>
