<svg width="60" height="61" viewBox="0 0 60 61" fill="none" xmlns="http://www.w3.org/2000/svg">
<path d="M59.5 30.4805C59.5 46.7729 46.2924 59.9805 30 59.9805C13.7076 59.9805 0.5 46.7729 0.5 30.4805C0.5 14.1881 13.7076 0.980469 30 0.980469C46.2924 0.980469 59.5 14.1881 59.5 30.4805Z" stroke="#E3DBD8"/>
<path d="M36.9688 30.4805C36.9688 31.043 36.5312 31.4805 36 31.4805H26.4062L29.6875 34.793C30.0938 35.168 30.0938 35.8242 29.6875 36.1992C29.5 36.3867 29.25 36.4805 29 36.4805C28.7188 36.4805 28.4688 36.3867 28.2812 36.1992L23.2812 31.1992C22.875 30.8242 22.875 30.168 23.2812 29.793L28.2812 24.793C28.6562 24.3867 29.3125 24.3867 29.6875 24.793C30.0938 25.168 30.0938 25.8242 29.6875 26.1992L26.4062 29.4805H36C36.5312 29.4805 36.9688 29.9492 36.9688 30.4805Z" fill="white"/>
</svg>
