<svg width="60" height="61" viewBox="0 0 60 61" fill="none" xmlns="http://www.w3.org/2000/svg">
<path d="M30 60.4805C46.5685 60.4805 60 47.049 60 30.4805C60 13.9119 46.5685 0.480469 30 0.480469C13.4315 0.480469 0 13.9119 0 30.4805C0 47.049 13.4315 60.4805 30 60.4805Z" fill="#F7931E"/>
<path d="M36.6875 31.1992L31.6875 36.1992C31.5 36.3867 31.25 36.4805 31 36.4805C30.7188 36.4805 30.4688 36.3867 30.2812 36.1992C29.875 35.8242 29.875 35.168 30.2812 34.793L33.5625 31.4805H24C23.4375 31.4805 23 31.043 23 30.4805C23 29.9492 23.4375 29.4805 24 29.4805H33.5625L30.2812 26.1992C29.875 25.8242 29.875 25.168 30.2812 24.793C30.6562 24.3867 31.3125 24.3867 31.6875 24.793L36.6875 29.793C37.0938 30.168 37.0938 30.8242 36.6875 31.1992Z" fill="white"/>
</svg>
