<svg width="128" height="17" viewBox="0 0 128 17" fill="none" xmlns="http://www.w3.org/2000/svg">
<path d="M8.17383 9.35938H5.97656V15.9219H3.04688V9.35938H0.644531V6.66406H3.04688V4.58398C3.04688 2.24023 4.45312 0.921875 6.5918 0.921875C7.61719 0.921875 8.70117 1.12695 8.70117 1.12695V3.44141H7.5C6.32812 3.44141 5.97656 4.14453 5.97656 4.90625V6.66406H8.58398L8.17383 9.35938Z" fill="white"/>
<path d="M41.5625 5.05273C43.4082 5.05273 44.9316 6.57617 44.9316 8.42188C44.9316 10.2969 43.4082 11.791 41.5625 11.791C39.6875 11.791 38.1934 10.2969 38.1934 8.42188C38.1934 6.57617 39.6875 5.05273 41.5625 5.05273ZM41.5625 10.6191C42.7637 10.6191 43.7305 9.65234 43.7305 8.42188C43.7305 7.2207 42.7637 6.25391 41.5625 6.25391C40.332 6.25391 39.3652 7.2207 39.3652 8.42188C39.3652 9.65234 40.3613 10.6191 41.5625 10.6191ZM45.8398 4.93555C45.8398 4.49609 45.4883 4.14453 45.0488 4.14453C44.6094 4.14453 44.2578 4.49609 44.2578 4.93555C44.2578 5.375 44.6094 5.72656 45.0488 5.72656C45.4883 5.72656 45.8398 5.375 45.8398 4.93555ZM48.0664 5.72656C48.125 6.81055 48.125 10.0625 48.0664 11.1465C48.0078 12.2012 47.7734 13.1094 47.0117 13.9004C46.25 14.6621 45.3125 14.8965 44.2578 14.9551C43.1738 15.0137 39.9219 15.0137 38.8379 14.9551C37.7832 14.8965 36.875 14.6621 36.084 13.9004C35.3223 13.1094 35.0879 12.2012 35.0293 11.1465C34.9707 10.0625 34.9707 6.81055 35.0293 5.72656C35.0879 4.67188 35.3223 3.73438 36.084 2.97266C36.875 2.21094 37.7832 1.97656 38.8379 1.91797C39.9219 1.85938 43.1738 1.85938 44.2578 1.91797C45.3125 1.97656 46.25 2.21094 47.0117 2.97266C47.7734 3.73438 48.0078 4.67188 48.0664 5.72656ZM46.6602 12.2891C47.0117 11.4395 46.9238 9.38867 46.9238 8.42188C46.9238 7.48438 47.0117 5.43359 46.6602 4.55469C46.4258 3.99805 45.9863 3.5293 45.4297 3.32422C44.5508 2.97266 42.5 3.06055 41.5625 3.06055C40.5957 3.06055 38.5449 2.97266 37.6953 3.32422C37.1094 3.55859 36.6699 3.99805 36.4355 4.55469C36.084 5.43359 36.1719 7.48438 36.1719 8.42188C36.1719 9.38867 36.084 11.4395 36.4355 12.2891C36.6699 12.875 37.1094 13.3145 37.6953 13.5488C38.5449 13.9004 40.5957 13.8125 41.5625 13.8125C42.5 13.8125 44.5508 13.9004 45.4297 13.5488C45.9863 13.3145 46.4551 12.875 46.6602 12.2891Z" fill="white"/>
<path d="M83.0596 6.82178L88.8879 0.046875H87.5068L82.4461 5.92943L78.4041 0.046875H73.7422L79.8544 8.94234L73.7422 16.0469H75.1234L80.4676 9.83469L84.7362 16.0469H89.3981L83.0593 6.82178H83.0596ZM81.1679 9.02071L80.5486 8.13493L75.621 1.08661H77.7425L81.719 6.77483L82.3383 7.66062L87.5074 15.0544H85.386L81.1679 9.02105V9.02071Z" fill="white"/>
<path d="M126.188 1.85938C126.686 1.85938 127.125 2.29883 127.125 2.82617V14.0469C127.125 14.5742 126.686 14.9844 126.188 14.9844H114.908C114.41 14.9844 114 14.5742 114 14.0469V2.82617C114 2.29883 114.41 1.85938 114.908 1.85938H126.188ZM117.955 13.1094V6.86914H116.021V13.1094H117.955ZM116.988 5.99023C117.604 5.99023 118.102 5.49219 118.102 4.87695C118.102 4.26172 117.604 3.73438 116.988 3.73438C116.344 3.73438 115.846 4.26172 115.846 4.87695C115.846 5.49219 116.344 5.99023 116.988 5.99023ZM125.25 13.1094V9.68164C125.25 8.01172 124.869 6.69336 122.906 6.69336C121.969 6.69336 121.324 7.2207 121.061 7.71875H121.031V6.86914H119.186V13.1094H121.119V10.0332C121.119 9.21289 121.266 8.42188 122.291 8.42188C123.287 8.42188 123.287 9.35938 123.287 10.0625V13.1094H125.25Z" fill="white"/>
</svg>
