<svg width="20" height="21" viewBox="0 0 20 21" fill="none" xmlns="http://www.w3.org/2000/svg">
<g clip-path="url(#clip0_3756_20)">
<path d="M19.3 3.15033C19.2618 3.07055 19.1936 3.00915 19.1103 2.97958L12.1959 0.538667C12.0224 0.477292 11.832 0.568459 11.7706 0.741959L10.2 5.18628H9.51302V4.05295C9.513 3.89988 9.47783 3.74885 9.41023 3.61151C9.34263 3.47417 9.2444 3.35419 9.12311 3.2608C9.00182 3.16742 8.86071 3.10313 8.71066 3.07289C8.5606 3.04264 8.4056 3.04726 8.25761 3.08637L0.248416 5.19737V5.20337C0.177823 5.22111 0.115123 5.26179 0.0701599 5.31904C0.0251971 5.37628 0.000518721 5.44683 0 5.51962L0 19.5196C0 20.0718 0.447749 20.5196 0.999998 20.5196H10.3333C10.8856 20.5196 11.3333 20.0718 11.3333 19.5196V16.495L14.0066 17.4387C14.1803 17.4999 14.3707 17.4089 14.4319 17.2353L19.3143 3.40504C19.3287 3.36373 19.3349 3.31996 19.3325 3.27625C19.33 3.23255 19.319 3.18975 19.2999 3.15033H19.3ZM8.42769 3.7292C8.47703 3.7162 8.52869 3.71468 8.57871 3.72476C8.62873 3.73483 8.67577 3.75624 8.71623 3.78733C8.7567 3.81849 8.78947 3.85853 8.81202 3.90436C8.83456 3.95019 8.84628 4.00058 8.84627 4.05166V5.18628H2.90366L8.42769 3.7292ZM10.6666 19.5196C10.6666 19.608 10.6315 19.6928 10.569 19.7553C10.5065 19.8178 10.4217 19.8529 10.3333 19.8529H0.999998C0.911593 19.8529 0.826808 19.8178 0.764296 19.7553C0.701784 19.6928 0.666665 19.608 0.666665 19.5196V5.85295H10.3333C10.4217 5.85295 10.5065 5.88807 10.569 5.95058C10.6315 6.01309 10.6666 6.09787 10.6666 6.18628V19.5196ZM13.4067 7.12199L13.8333 6.9197L14.0366 7.34499L12.417 11.9286C12.3877 12.0119 12.3926 12.1036 12.4306 12.1834L12.7776 12.9093L12.6704 13.2136L12.0093 12.529C11.9734 12.4916 11.9294 12.4631 11.8806 12.4458C11.8318 12.4284 11.7797 12.4226 11.7283 12.4289L11.3333 12.4789V12.0323L11.6176 11.8962C11.6974 11.8581 11.7588 11.7899 11.7884 11.7066L12.4551 9.82136L13.4067 7.12199ZM14.0353 9.3469L14.7121 10.4343L14.5963 10.7619L13.7866 10.053L14.0353 9.3469ZM11.3333 10.9926V10.0766L11.6613 10.0629L11.3333 10.9926ZM11.9001 9.38598L11.3333 9.40927V8.96557L12.1494 8.6809L11.9001 9.38598ZM13.9141 16.699L11.3333 15.7879V13.1509L11.6456 13.1118L12.5667 14.0646C12.598 14.0965 12.6353 14.1218 12.6765 14.1389C12.7177 14.1561 12.762 14.1648 12.8066 14.1646C12.8304 14.1647 12.8541 14.1622 12.8773 14.1569C12.9328 14.1449 12.9843 14.1188 13.0268 14.0812C13.0694 14.0437 13.1017 13.9958 13.1206 13.9423L13.4539 12.9992C13.4834 12.9159 13.4785 12.8242 13.4402 12.7446L13.0916 12.0196L13.5477 10.7279L14.527 11.5864C14.5878 11.6396 14.6659 11.669 14.7468 11.669C14.7752 11.669 14.8036 11.6653 14.8311 11.6579C14.8837 11.6442 14.9322 11.6177 14.9723 11.5809C15.0124 11.5441 15.0429 11.498 15.0611 11.4467L15.3944 10.5036C15.411 10.4565 15.4168 10.4063 15.4114 10.3566C15.406 10.3069 15.3894 10.2591 15.363 10.2167L14.3196 8.54061L14.7103 7.43436C14.7249 7.39303 14.7312 7.34923 14.7289 7.30546C14.7265 7.26169 14.7156 7.21881 14.6966 7.17928L14.2901 6.32903C14.2712 6.28951 14.2447 6.2541 14.2121 6.22482C14.1796 6.19554 14.1416 6.17296 14.1003 6.15837C14.059 6.14379 14.0152 6.13748 13.9715 6.13981C13.9277 6.14214 13.8849 6.15306 13.8454 6.17195L12.9946 6.5787C12.9552 6.59756 12.9199 6.62401 12.8906 6.65654C12.8614 6.68907 12.8389 6.72704 12.8244 6.76828L12.4333 7.8759L11.3333 8.25961V6.18628C11.3329 6.0157 11.2888 5.84806 11.2051 5.69942C11.1214 5.55078 11.0009 5.42611 10.8553 5.33732L11.4001 3.79258L11.5223 3.44604L12.2891 1.27937L18.5753 3.49829L13.9141 16.699Z" fill="white"/>
<path d="M16.5439 5.60985L16.7657 4.9811L17.3374 5.18277L17.1155 5.81152L16.5439 5.60985ZM11.972 3.99573L12.194 3.36719L12.7654 3.56898L12.5434 4.19756L11.972 3.99573ZM15.4008 5.20635L15.6228 4.5776L16.1943 4.77943L15.9723 5.40802L15.4008 5.20635ZM13.115 4.39939L13.337 3.77081L13.9083 3.97264L13.6863 4.60123L13.115 4.39939ZM14.2579 4.80256L14.48 4.17398L15.0514 4.37581L14.8294 5.00435L14.2579 4.80256ZM5.51301 7.18747C3.67202 7.18747 2.17969 8.6798 2.17969 10.5208C2.17969 12.3618 3.67202 13.8541 5.51301 13.8541C7.35401 13.8541 8.84634 12.3618 8.84634 10.5208C8.84438 8.6808 7.35318 7.18955 5.51301 7.18747ZM7.92005 9.38113L7.4653 9.28122C7.2653 9.23709 7.06522 9.20213 6.86322 9.17184C6.83297 8.97006 6.79646 8.76927 6.75372 8.56976L6.65359 8.11518C7.20852 8.37932 7.65568 8.82632 7.92005 9.38113ZM2.84631 10.5208C2.84698 10.3845 2.85806 10.2485 2.87969 10.1139L3.70393 9.93047C3.83039 9.90247 3.95768 9.87922 4.08527 9.85722C4.05304 10.2991 4.05304 10.7427 4.08527 11.1845C3.95764 11.1625 3.83039 11.1391 3.70393 11.1111L2.87969 10.9279C2.85809 10.7932 2.84695 10.6571 2.84635 10.5208H2.84631ZM4.76172 9.76984C5.26137 9.72525 5.76399 9.72525 6.26364 9.76984C6.30839 10.2695 6.30839 10.7721 6.26364 11.2718C5.76399 11.3165 5.26133 11.3165 4.76168 11.2718C4.71693 10.7721 4.71697 10.2695 4.76172 9.76984ZM6.93926 9.85722C7.06701 9.87922 7.1943 9.90247 7.32059 9.93047L8.14497 10.1139C8.19119 10.3832 8.19119 10.6585 8.14497 10.9279L7.32059 11.1111C7.19434 11.1391 7.06701 11.1625 6.93926 11.1849C6.97165 10.7429 6.97165 10.2992 6.93926 9.85722ZM5.91972 7.88751L6.10301 8.71222C6.13101 8.83851 6.1546 8.9658 6.17676 9.09355C5.73474 9.06116 5.29095 9.06116 4.84893 9.09355C4.87106 8.9658 4.89435 8.83851 4.92268 8.71222L5.10593 7.88751C5.37527 7.84178 5.65039 7.84178 5.91972 7.88751ZM4.37306 8.11276L4.27293 8.56751C4.22898 8.76751 4.19397 8.96759 4.16373 9.16959C3.96195 9.19973 3.76116 9.23613 3.56164 9.27876L3.10689 9.37888C3.37146 8.82455 3.81845 8.37796 4.37302 8.11389L4.37306 8.11276ZM3.10623 11.6595L3.56098 11.7595C3.76098 11.8035 3.96085 11.8385 4.16306 11.8688C4.19319 12.0706 4.2296 12.2713 4.27222 12.4708L4.37235 12.9254C3.8175 12.6615 3.37024 12.2149 3.10556 11.6604L3.10623 11.6595ZM5.10622 13.1521L4.92293 12.3274C4.8946 12.2015 4.87135 12.0738 4.84918 11.9464C5.06993 11.9625 5.2916 11.9734 5.51326 11.9734C5.73493 11.9734 5.95597 11.9625 6.17701 11.9464C6.15489 12.0738 6.13126 12.2014 6.10326 12.3274L5.92001 13.1521C5.65068 13.1979 5.37556 13.1979 5.10622 13.1521ZM6.65289 12.9269L6.75301 12.4721C6.7973 12.2721 6.83197 12.0722 6.86259 11.87C7.06434 11.8399 7.2651 11.8035 7.46459 11.7609L7.91918 11.6608C7.65505 12.2161 7.20779 12.6635 6.65259 12.9278L6.65289 12.9269ZM2.84635 16.5208H8.17967V17.1875H2.84635V16.5208ZM3.51302 17.8541H7.51301V18.5208H3.51302V17.8541ZM5.17968 15.1875H5.84635V15.8541H5.17968V15.1875ZM3.84635 15.1875H4.51302V15.8541H3.84635V15.1875ZM6.51301 15.1875H7.17968V15.8541H6.51301V15.1875Z" fill="white"/>
</g>
<defs>
<clipPath id="clip0_3756_20">
<rect width="20" height="20" fill="white" transform="translate(0 0.519531)"/>
</clipPath>
</defs>
</svg>
