<svg width="25" height="26" viewBox="0 0 25 26" fill="none" xmlns="http://www.w3.org/2000/svg">
<path d="M12.5 25.125C5.56641 25.125 0 19.5586 0 12.625C0 5.74023 5.56641 0.125 12.5 0.125C19.3848 0.125 25 5.74023 25 12.625C25 19.5586 19.3848 25.125 12.5 25.125ZM11.3281 12.625C11.3281 13.0156 11.5234 13.4062 11.8164 13.6016L16.5039 16.7266C17.041 17.1172 17.7734 16.9707 18.1152 16.4336C18.5059 15.8965 18.3594 15.1641 17.8223 14.7734L13.6719 12.0391V5.98438C13.6719 5.34961 13.1348 4.8125 12.4512 4.8125C11.8164 4.8125 11.2793 5.34961 11.2793 5.98438L11.3281 12.625Z" fill="#F7931E"/>
</svg>
